<?xml version="1.0" standalone="no"?>
<!DOCTYPE svg PUBLIC "-//W3C//DTD SVG 20010904//EN"
 "http://www.w3.org/TR/2001/REC-SVG-20010904/DTD/svg10.dtd">
<svg version="1.0" xmlns="http://www.w3.org/2000/svg"
 width="264.000000pt" height="401.000000pt" viewBox="0 0 264.000000 401.000000"
 preserveAspectRatio="xMidYMid meet">

<g transform="translate(0.000000,401.000000) scale(0.100000,-0.100000)"
fill="#000000" stroke="none">
<path d="M1090 3730 l0 -250 230 0 230 0 0 250 0 250 -230 0 -230 0 0 -250z"/>
<path d="M770 3580 c-18 -18 -20 -33 -20 -143 0 -116 1 -125 23 -145 l23 -22
525 0 526 0 21 23 c20 21 22 34 22 143 0 162 -2 164 -145 164 l-105 0 0 -60 0
-60 64 0 c88 0 126 -38 74 -74 -20 -14 -80 -16 -458 -16 -378 0 -438 2 -458
16 -52 36 -14 74 74 74 l64 0 0 60 0 60 -105 0 c-92 0 -108 -3 -125 -20z"/>
<path d="M36 3368 c-14 -20 -16 -194 -16 -1663 0 -1469 2 -1643 16 -1663 l15
-22 1268 0 c1216 0 1269 1 1284 18 16 17 17 147 17 1669 0 1586 -1 1651 -18
1666 -16 15 -53 17 -319 17 l-299 0 -12 -62 c-9 -50 -19 -69 -47 -98 l-35 -35
-558 -3 c-542 -2 -558 -2 -590 18 -42 26 -69 71 -77 131 l-7 49 -303 0 c-303
0 -304 0 -319 -22z m2412 -360 c9 -9 12 -273 12 -1127 l0 -1116 -302 -302
-303 -303 -825 0 c-629 0 -829 3 -838 12 -17 17 -17 2819 0 2836 17 17 2239
17 2256 0z"/>
<path d="M270 1595 l0 -1345 760 0 760 0 0 274 c0 273 0 275 22 290 19 14 64
16 290 16 l268 0 0 1055 0 1055 -1050 0 -1050 0 0 -1345z m1454 1133 c8 -13 8
-23 0 -35 -10 -17 -42 -18 -399 -21 -399 -2 -415 -1 -415 37 0 40 9 41 414 39
358 -3 390 -4 400 -20z m430 -184 c22 -21 20 -40 -6 -58 -20 -14 -115 -16
-826 -16 -501 0 -810 4 -821 10 -28 14 -34 40 -15 61 16 18 51 19 835 19 730
0 819 -2 833 -16z m-2 -191 c22 -20 23 -37 2 -57 -14 -14 -103 -16 -833 -16
-802 0 -818 0 -836 20 -17 18 -17 21 -1 45 l16 25 817 0 c746 0 818 -1 835
-17z m-1 -192 c21 -16 22 -22 11 -45 l-12 -26 -824 0 c-736 0 -826 2 -840 16
-21 20 -20 30 4 54 20 20 33 20 829 20 777 0 810 -1 832 -19z m9 -201 c8 -14
8 -26 0 -40 -11 -20 -21 -20 -840 -20 -819 0 -829 0 -840 20 -8 14 -8 26 0 40
11 20 21 20 840 20 819 0 829 0 840 -20z m2 -195 c10 -21 9 -29 -6 -43 -15
-16 -76 -17 -837 -17 -801 0 -821 0 -835 19 -18 25 -18 31 2 50 14 14 104 16
840 16 l824 0 12 -25z m-8 -181 c22 -21 20 -40 -6 -58 -20 -14 -115 -16 -826
-16 -501 0 -810 4 -821 10 -28 14 -34 40 -15 61 16 18 51 19 835 19 730 0 819
-2 833 -16z m-6 -190 c26 -18 28 -37 6 -58 -14 -14 -103 -16 -833 -16 -793 0
-818 1 -835 19 -14 15 -15 24 -7 39 6 11 16 23 23 25 7 3 375 6 818 6 714 1
808 -1 828 -15z m8 -196 c15 -14 16 -22 6 -43 l-12 -25 -824 0 c-736 0 -826 2
-840 16 -9 8 -16 19 -16 23 0 12 24 38 40 44 8 3 378 5 822 4 747 -2 809 -3
824 -19z m-542 -200 c8 -13 8 -23 0 -35 -10 -17 -50 -18 -567 -21 -548 -2
-556 -2 -567 18 -8 14 -8 26 0 40 11 20 19 20 567 18 517 -3 557 -4 567 -20z
m-2 -194 c11 -23 10 -29 -11 -45 -22 -18 -49 -19 -557 -19 -521 0 -534 0 -554
20 -24 24 -25 34 -4 54 14 14 79 16 565 16 l549 0 12 -26z m-8 -180 c20 -20
20 -38 0 -58 -14 -14 -78 -16 -556 -16 -490 0 -543 2 -560 17 -22 20 -23 31
-1 55 15 17 46 18 559 18 480 0 544 -2 558 -16z"/>
<path d="M1880 523 l0 -218 215 215 c118 118 215 216 215 217 0 2 -97 3 -215
3 l-215 0 0 -217z"/>
</g>
</svg>
